<svg width="281" height="295" viewBox="0 0 281 295" fill="none" xmlns="http://www.w3.org/2000/svg">
<path d="M53.2996 200.4C82.6812 200.4 106.5 176.582 106.5 147.2C106.5 117.818 82.6812 94 53.2996 94C23.9181 94 0.0996094 117.818 0.0996094 147.2C0.0996094 176.582 23.9181 200.4 53.2996 200.4Z" fill="#FF3E6C"/>
<path d="M187.8 12.7C187.7 19.6 182.2 25.2 175.3 25.2C168.4 25.2 162.8 19.6 162.8 12.7C162.8 5.80001 168.4 0.200012 175.3 0.200012C182.2 0.200012 187.9 3.50001 187.8 12.7Z" fill="#FF3E6C"/>
<path d="M199 100.5L177.1 114.8L201.3 126.3L199 100.5Z" fill="#FF3E6C"/>
<path d="M215.373 95.2371L206.88 98.504L210.147 106.997L218.64 103.73L215.373 95.2371Z" fill="#FF3E6C"/>
<path d="M110.799 263.6C111.899 269.4 113.899 273.5 116.199 276.6C116.399 276.9 116.599 277.1 116.799 277.4C117.299 278 117.799 278.5 118.299 279C118.599 279.3 118.799 279.5 119.099 279.7C121.799 282.1 124.699 283.5 127.199 284.6C133.499 287.3 133.799 294.2 133.799 294.2L84.3994 293.9C84.9994 285.7 84.9994 270.2 84.9994 270.2C95.2994 267.2 100.299 265.3 110.799 263.6Z" fill="#030047"/>
<path d="M116.3 276.6C116.5 276.9 116.7 277.1 116.9 277.4C114.9 278.3 112.9 279.3 110.9 280.2C110.3 280.5 109.8 279.6 110.4 279.4C112.4 278.4 114.3 277.5 116.3 276.6Z" fill="white"/>
<path d="M118.399 279C118.699 279.3 118.899 279.5 119.199 279.7C116.999 280.8 114.699 281.8 112.499 282.9C111.899 283.2 111.399 282.3 111.999 282.1C114.099 281 116.299 280 118.399 279Z" fill="white"/>
<path d="M42.2998 259.1C37.6998 262.8 34.9998 266.5 33.3998 270C33.2998 270.3 33.0998 270.6 32.9998 270.9C32.6998 271.6 32.4998 272.3 32.2998 273C32.1998 273.3 32.0998 273.7 31.9998 274C31.1998 277.5 31.2998 280.8 31.4998 283.5C31.9998 290.3 26.0998 293.8 26.0998 293.8L3.2998 250C10.1998 245.2 16.7998 240.7 22.0998 235.4C29.5998 243 35.8998 250.5 42.2998 259.1Z" fill="#030047"/>
<path d="M115.799 156.4C115.799 156.4 103.899 151.4 94.0992 150.1C94.6992 141.5 94.8992 135.8 94.8992 135.8L63.2992 137.9C59.8992 157.4 58.4992 185.7 44.0992 210.6C37.5992 221.9 26.3992 230.9 14.6992 241C21.1992 249.9 31.5992 261.6 38.1992 270.5C40.0992 267.4 68.2992 252.5 82.6992 214.2C82.2992 244.9 81.1992 276.3 81.1992 276.3L116.999 274C116.999 274 121.899 209.1 115.799 156.4Z" fill="white"/>
<path d="M80.3996 277V276.2C80.3996 275.9 81.3996 247.3 81.8996 218.2C70.0996 246.6 50.8996 261.3 42.5996 267.7C40.7996 269.1 39.1996 270.3 38.8996 270.8L38.2996 271.8L37.5996 270.9C34.4996 266.7 30.3996 261.8 26.4996 257.1C22.0996 251.7 17.4996 246.2 13.9996 241.4L13.5996 240.8L14.0996 240.3C15.2996 239.3 16.4996 238.2 17.6996 237.2C27.8996 228.4 37.4996 220.1 43.2996 210.1C54.8996 190 57.9996 167.7 60.5996 149.7C61.1996 145.4 61.7996 141.3 62.3996 137.6L62.4996 137L95.4996 134.8V135.6C95.4996 135.7 95.2996 141.1 94.6996 149.2C104.4 150.6 115.8 155.4 115.9 155.5L116.3 155.7L116.4 156.1C122.4 208.2 117.6 273.1 117.6 273.8V274.5L80.3996 277ZM83.4996 209.9L83.3996 214.2C82.9996 241.8 82.0996 270.3 81.8996 275.5L116.2 273.3C116.7 266.4 120.6 206.1 115 157C112.8 156.1 102.5 152 93.8996 150.9L93.1996 150.8L93.2996 150.1C93.7996 143.5 93.9996 138.5 94.0996 136.7L63.8996 138.7C63.2996 142.3 62.7996 146.1 62.1996 150.2C59.5996 168.3 56.4996 190.8 44.7996 211.1C38.8996 221.3 29.1996 229.7 18.8996 238.6C17.8996 239.5 16.8996 240.4 15.7996 241.2C19.1996 245.8 23.5996 251.1 27.7996 256.2C31.4996 260.7 35.2996 265.3 38.3996 269.3C39.0996 268.7 40.1996 267.8 41.7996 266.6C50.3996 260 70.6996 244.4 82.1996 213.9L83.4996 209.9Z" fill="#030047"/>
<path d="M33.4003 269.9C33.3003 270.2 33.1003 270.5 33.0003 270.8C31.2003 269.5 29.5003 268.1 27.7003 266.8C27.2003 266.4 27.7003 265.5 28.2003 265.9C29.9003 267.3 31.6003 268.6 33.4003 269.9Z" fill="white"/>
<path d="M32.2997 272.9C32.1997 273.2 32.0997 273.6 31.9997 273.9C29.9997 272.4 27.9997 271 26.0997 269.5C25.5997 269.1 26.0997 268.2 26.5997 268.6C28.4997 270.1 30.3997 271.5 32.2997 272.9Z" fill="white"/>
<path d="M85.0001 209.3C84.9001 209.3 84.8001 209.3 84.7001 209.2C84.3001 209.1 84.1001 208.6 84.3001 208.2C91.4001 189.7 94.1001 168.4 94.1001 168.2L94.2001 167.6H94.8001C94.9001 167.6 100.4 167.3 104.1 166.3C104.5 166.2 104.9 166.4 105 166.8C105.1 167.2 104.9 167.6 104.5 167.7C101.4 168.5 97.1001 168.9 95.5001 169C95.0001 172.7 92.2001 191.9 85.7001 208.7C85.6001 209.1 85.3001 209.3 85.0001 209.3Z" fill="#030047"/>
<path d="M222.4 115.7C190.5 115.7 164.6 89.8 164.6 57.9C164.6 57.5 164.9 57.1 165.4 57.1C165.9 57.1 166.2 57.4 166.2 57.9C166.2 89 191.5 114.2 222.5 114.2C231.7 114.2 240.8 111.9 248.8 107.7C249.2 107.5 249.6 107.6 249.8 108C250 108.4 249.9 108.8 249.5 109C241.2 113.3 231.8 115.7 222.4 115.7Z" fill="#030047"/>
<path d="M232.299 54H212.499C212.099 54 211.699 53.7 211.699 53.2C211.699 52.7 211.999 52.4 212.499 52.4H232.299C232.699 52.4 233.099 52.7 233.099 53.2C233.099 53.7 232.699 54 232.299 54Z" fill="#030047"/>
<path d="M232.299 63.3H212.499C212.099 63.3 211.699 63 211.699 62.5C211.699 62 211.999 61.7 212.499 61.7H232.299C232.699 61.7 233.099 62 233.099 62.5C233.099 63 232.699 63.3 232.299 63.3Z" fill="#030047"/>
<path d="M227 93.9C226.6 93.9 226.3 93.6 226.3 93.2C226.2 92.8 226.5 92.4 226.9 92.4C229 92.1 231.1 91.7 233.1 91C233.5 90.9 233.9 91.1 234 91.5C234.1 91.9 233.9 92.3 233.5 92.4C231.5 93.1 229.3 93.6 227 93.9C227.1 93.9 227.1 93.9 227 93.9Z" fill="#030047"/>
<path d="M243 87.6C242.8 87.6 242.5 87.5 242.4 87.3C242.2 87 242.2 86.5 242.6 86.3C245.4 84.3 248 81.9 250.1 79.1C250.4 78.8 250.8 78.7 251.2 79C251.5 79.3 251.6 79.7 251.3 80.1C249.1 83 246.4 85.5 243.5 87.6C243.3 87.6 243.2 87.6 243 87.6Z" fill="#030047"/>
<path d="M254 75C253.9 75 253.8 75 253.7 74.9001C253.3 74.7001 253.2 74.3001 253.4 73.9001C256 69 257.3 63.4 257.3 57.8C257.3 45.5 251 34.4 240.5 28C240.1 27.8 240 27.3 240.2 27C240.4 26.6 240.9 26.5 241.2 26.7C252.2 33.4 258.7 45 258.7 57.8C258.7 63.6 257.3 69.4 254.6 74.6C254.6 74.8 254.3 75 254 75Z" fill="#030047"/>
<path d="M198.899 31.8C198.699 31.8 198.499 31.7 198.299 31.5C197.999 31.2 198.099 30.7 198.399 30.4C204.999 24.6 213.499 21.4 222.399 21.4C224.899 21.4 227.299 21.6 229.699 22.1C230.099 22.2 230.399 22.6 230.299 23C230.199 23.4 229.799 23.7 229.399 23.6C227.099 23.1 224.699 22.9 222.399 22.9C213.899 22.9 205.799 26 199.399 31.5C199.299 31.7 199.099 31.8 198.899 31.8Z" fill="#030047"/>
<path d="M268.3 58.6C267.9 58.6 267.5 58.3 267.5 57.8C267.5 56.3 267.4 54.7 267.3 53.2C265 30.1 245.7 12.7 222.4 12.7C222 12.7 221.6 12.4 221.6 11.9C221.6 11.4 221.9 11.1 222.4 11.1C246.4 11.1 266.3 29.1 268.7 52.9C268.9 54.5 268.9 56.1 268.9 57.7C269 58.2 268.7 58.6 268.3 58.6Z" fill="#030047"/>
<path d="M201.4 17.9C201.1 17.9 200.9 17.8 200.7 17.5C200.5 17.1 200.7 16.7 201 16.5C205.1 14.4 209.5 12.9 214.1 12C214.5 11.9 214.9 12.1999 215 12.5999C215.1 12.9999 214.8 13.4 214.4 13.5C210 14.3 205.7 15.8 201.7 17.8C201.6 17.8 201.5 17.9 201.4 17.9Z" fill="#030047"/>
<path d="M211.199 103C211.099 103 211.099 103 210.999 103C199.199 100 188.799 92.3 182.499 81.8C182.299 81.4 182.399 81 182.799 80.8C183.199 80.6 183.599 80.7 183.799 81.1C189.899 91.3 199.999 98.7 211.399 101.6C211.799 101.7 211.999 102.1 211.899 102.5C211.799 102.8 211.499 103 211.199 103Z" fill="#030047"/>
<path d="M222.4 104.4C222 104.4 221.6 104.1 221.6 103.6C221.6 103.1 221.9 102.8 222.4 102.8C232.7 102.8 242.8 99.2 250.8 92.8C251.1 92.5 251.6 92.6 251.9 92.9C252.2 93.2 252.1 93.7 251.8 94C243.5 100.7 233.1 104.4 222.4 104.4Z" fill="#030047"/>
<path d="M275.7 79.2C275.6 79.2 275.5 79.2 275.4 79.1C275 79 274.8 78.5 275 78.1C277.5 71.6 278.8 64.8 278.8 57.8C278.8 42.6 272.8 28.3 261.9 17.6C261.6 17.3 261.6 16.8 261.9 16.5C262.2 16.2 262.7 16.2 263 16.5C274.2 27.5 280.3 42.1 280.3 57.8C280.3 65 279 72 276.4 78.7C276.3 79 276 79.2 275.7 79.2Z" fill="#030047"/>
<path d="M252.799 10.3C252.699 10.3 252.499 10.3 252.399 10.2C249.599 8.50004 246.699 7.00004 243.699 5.70004C243.299 5.50004 243.099 5.10004 243.299 4.70004C243.499 4.30004 243.899 4.10001 244.299 4.30001C247.399 5.60001 250.399 7.10005 253.199 8.90005C253.599 9.10005 253.699 9.60005 253.399 9.90005C253.299 10.1001 253.099 10.3 252.799 10.3Z" fill="#030047"/>
<path d="M172.199 31.4C172.099 31.4 171.999 31.4 171.799 31.3C171.399 31.1 171.299 30.6 171.499 30.3C178.499 17.5 189.899 7.79998 203.699 3.09998C209.699 1.09998 215.999 0 222.399 0C222.799 0 223.199 0.299988 223.199 0.799988C223.199 1.29999 222.899 1.59998 222.399 1.59998C216.199 1.59998 209.999 2.59998 204.199 4.59998C190.799 9.19998 179.699 18.6 172.899 31.1C172.799 31.2 172.499 31.4 172.199 31.4Z" fill="#030047"/>
<path d="M187 61.7C186.6 61.7 186.3 61.4 186.3 61C186.2 59.9 186.1 58.7 186.1 57.6C186.1 51.7 187.5 45.9 190.2 40.7C190.4 40.3 190.8 40.2001 191.2 40.4001C191.6 40.6001 191.7 41.0001 191.5 41.4001C188.9 46.4001 187.6 52 187.6 57.6C187.6 58.7 187.7 59.8001 187.8 60.9001C187.7 61.3001 187.4 61.7 187 61.7Z" fill="#030047"/>
<path d="M181.8 61L182.5 60.2C183.2 59.4 182.8 58.6001 182 57.9001C179.2 55.0001 176.4 54.1 173 55.2C170.7 51.8 163.1 58.8 158.4 64.3C157 66 154.9 68 152.6 70.1C154.9 75.8 156.8 81.7001 159 87.4001C159.3 88.3001 159.7 89.2 160.1 90C161.7 87.7 163.4 85.6 165.2 83.8C166.6 82.4 167.6 81 168.5 79.7C171.3 77.7 174.9 73.3 174.9 73.3C175.8 74.2 177.3 73.6001 180.6 70.9001C183.9 68.2001 182.4 65.7 182.4 65.7C184.2 63.2 181.8 61 181.8 61Z" fill="white"/>
<path d="M159.899 91.5L159.399 90.3C158.999 89.4 158.699 88.5 158.299 87.7C157.199 84.9 156.199 82 155.199 79.3C154.199 76.4 153.099 73.4 151.899 70.5L151.699 70L152.099 69.7C154.399 67.7 156.399 65.7 157.899 63.9C159.999 61.4 167.299 53.5 171.499 53.7C172.199 53.7 172.799 54 173.299 54.5C176.699 53.6 179.699 54.5 182.599 57.5C183.099 58 184.499 59.4 183.099 60.9L182.799 61.2C183.599 62.3 184.399 64.1 183.099 66C183.599 67.2 183.499 69.5 180.999 71.7C178.399 73.9 176.399 75.2 174.999 74.5C173.999 75.7 171.299 78.7 168.999 80.4C168.099 81.8 166.999 83.2 165.699 84.5C164.099 86.1 162.599 88 160.699 90.6L159.899 91.5ZM153.399 70.3C154.499 73.1 155.499 75.9 156.499 78.7C157.499 81.5 158.499 84.3 159.599 87.1C159.799 87.6 159.999 88 160.199 88.5C161.799 86.3 163.199 84.7 164.599 83.3C165.899 82 166.899 80.7 167.799 79.3L167.899 79.2L167.999 79.1C170.699 77.2 174.199 72.9 174.299 72.9L174.799 72.3L175.399 72.9C175.699 73.2 176.599 73.4 180.099 70.4C182.799 68.1 181.699 66.3 181.699 66.2L181.399 65.7L181.699 65.3C183.199 63.5 181.399 61.7 181.299 61.6L180.799 61.1L181.999 59.8C182.199 59.6 182.399 59.4 181.499 58.5C178.799 55.8 176.299 55 173.299 56L172.799 56.2L172.499 55.7C172.299 55.3 171.899 55.2 171.499 55.1C168.899 55 163.399 59.9 159.099 64.8C157.499 66.4 155.599 68.3 153.399 70.3Z" fill="#030047"/>
<path d="M161.199 61.7C161.199 61.2 161.299 60.7 161.599 60.3H155.799C155.399 60.3 154.999 60.6 154.999 61.1C154.999 61.6 155.299 61.9 155.799 61.9L161.199 61.7Z" fill="#030047"/>
<path d="M186.899 60.2H170.699C170.599 60.8 170.399 61.3 169.899 61.7H186.799C187.199 61.7 187.599 61.4 187.599 60.9C187.599 60.4 187.299 60.2 186.899 60.2Z" fill="#030047"/>
<path d="M154.799 67.9C149.299 73.2 140.799 83 132.699 86.2C122.599 90.2 104.799 68.4 92.1992 69.7L95.3992 91.6C95.3992 91.6 105.999 113.5 125.599 117.8C145.199 122.1 165.199 87.8 165.299 87.7C162.799 81.9 159.399 71.9 154.799 67.9Z" fill="#030047"/>
<path d="M129.099 119C127.899 119 126.699 118.9 125.499 118.6C105.799 114.2 94.8994 92.2 94.7994 92L94.6994 91.8L91.3994 69.1L92.1994 69C98.5994 68.4 106.099 73.3 113.299 78C120.699 82.9 127.699 87.4 132.499 85.5C138.899 83 145.499 76.2 150.899 70.8C152.099 69.5 153.299 68.4 154.399 67.3L154.899 66.8L155.399 67.2C159.199 70.5 162.099 77.6 164.499 83.3C165.099 84.7 165.599 86 166.099 87.2L166.299 87.7L165.899 88.1C162.499 93.7 146.199 119 129.099 119ZM96.1994 91.4C96.9994 93 107.499 113 125.799 117.1C142.999 120.9 160.899 93.5 164.499 87.6C163.999 86.5 163.499 85.3 162.999 84C160.799 78.7 158.199 72.1 154.799 68.9C153.899 69.8 152.899 70.8 151.899 71.8C146.499 77.3 139.699 84.2 132.999 86.8C127.399 89 120.099 84.2 112.399 79.1C105.799 74.8 98.9994 70.3 93.2994 70.3C93.1994 70.3 93.1994 70.3 93.0994 70.3L96.1994 91.4Z" fill="#030047"/>
<path d="M172.399 56.5C171.499 58.9 170.099 60.8 168.099 62.5C167.899 62.7 167.899 63 168.099 63.2C170.299 65.6 170.099 68.9 167.699 71.1C167.199 71.5 167.899 72.2 168.399 71.8C170.499 69.9 171.399 67 170.199 64.3C170.099 64.2 169.299 63 169.399 63C169.499 62.4 170.699 61.5 171.099 61C172.099 59.7 172.899 58.3 173.399 56.7C173.599 56.1 172.699 55.9 172.399 56.5Z" fill="#030047"/>
<path d="M174.699 62.7C172.199 63.7 171.799 66.8 173.999 68.4C174.499 68.8 174.999 67.9 174.499 67.5C172.999 66.5 173.299 64.3 174.999 63.7C175.499 63.4 175.299 62.5 174.699 62.7Z" fill="#030047"/>
<path d="M179.399 64.9C177.499 66 172.499 69.1 174.399 71.9C174.799 72.4 175.599 71.9 175.299 71.4C173.999 69.4 178.599 66.6 179.999 65.8C180.499 65.4 179.999 64.6 179.399 64.9Z" fill="#030047"/>
<path d="M83.4998 67.6L81.7998 71.9L100.7 74.1L101.6 65.3L83.4998 67.6Z" fill="#030047"/>
<path d="M98.3002 72.5C87.7002 64.3 65.9002 78.5 62.4002 90.6C58.9002 102.7 54.7002 161.4 54.7002 161.4L119 160.5C119 160.5 113.8 97.1001 106.3 86.4001C98.9002 75.6001 101.9 75.2 98.3002 72.5Z" fill="#030047"/>
<path d="M112.4 106.6C112.1 106.6 111.7 106.4 111.7 106C111.7 105.9 110.4 100 107.7 90.8C107.6 90.4 107.8 90 108.2 89.9C108.6 89.8 109 90 109.1 90.4C111.9 99.7 113.1 105.6 113.1 105.7C113.2 106.1 112.9 106.5 112.5 106.6H112.4Z" fill="white"/>
<path d="M122.6 124.8H117.4C114.2 124.8 111.6 122.2 111.6 119V112.7C111.6 109.5 114.2 106.9 117.4 106.9H122.6C123 106.9 123.4 107.2 123.4 107.7C123.4 108.2 123.1 108.5 122.6 108.5H117.4C115 108.5 113.1 110.5 113.1 112.8V119.1C113.1 121.5 115.1 123.4 117.4 123.4H122.6C123 123.4 123.4 123.7 123.4 124.2C123.4 124.7 123 124.8 122.6 124.8Z" fill="white"/>
<path d="M127.599 126.9C123.099 126.9 119.399 123.2 119.399 118.7V105.9H135.799V118.7C135.799 123.2 132.199 126.9 127.599 126.9Z" fill="white"/>
<path d="M127.599 127.6C122.699 127.6 118.699 123.6 118.699 118.7V105.1H136.599V118.7C136.599 123.6 132.599 127.6 127.599 127.6ZM120.199 106.6V118.7C120.199 122.8 123.499 126.1 127.599 126.1C131.699 126.1 134.999 122.8 134.999 118.7V106.6H120.199Z" fill="#030047"/>
<path d="M129.1 101.2C128.7 101.2 128.4 100.9 128.4 100.6L127 90.7C126.9 90.3 127.2 89.9 127.6 89.8C128 89.7 128.4 90 128.5 90.4L129.9 100.3C130 100.7 129.7 101.1 129.3 101.2C129.1 101.2 129.1 101.2 129.1 101.2Z" fill="white"/>
<path d="M124.1 101.9C123.8 101.9 123.6 101.8 123.4 101.5L121.1 97.2C120.9 96.8 121 96.4 121.4 96.2C121.8 96 122.2 96.1 122.4 96.5L124.7 100.8C124.9 101.2 124.8 101.6 124.4 101.8C124.4 101.8 124.3 101.9 124.1 101.9Z" fill="white"/>
<path d="M104.199 49C100.899 41.7 92.8994 38.2 86.3994 41.2C79.8994 44.2 77.1994 52.5 80.4994 59.8C80.4994 59.8 80.4994 59.8 80.4994 59.9C79.7994 60.2 79.1994 60.6 78.7994 61C75.4994 63.8 76.1994 67.9 79.3994 69.3C82.1994 70.5 86.0994 70.3 88.4994 67.4C91.6994 68.6 95.1994 68.7 98.2994 67.6C107.899 64.2 107.499 56.3 104.199 49Z" fill="white"/>
<path d="M82.7992 70.7C81.4992 70.7 80.1992 70.4 79.0992 69.9C77.3992 69.1 76.2992 67.7 75.9992 65.9C75.6992 63.9 76.5992 61.9 78.3992 60.3C78.7992 60 79.1992 59.7 79.6992 59.4C78.1992 55.9 77.9992 52 79.0992 48.5C80.2992 44.8 82.7992 41.9 86.0992 40.4C89.4992 38.9 93.2992 38.9 96.7992 40.5C100.299 42.1 103.199 44.9 104.899 48.6C107.299 53.9 107.699 58.3 106.299 61.8C105.099 64.7 102.499 66.9 98.6992 68.2C95.5992 69.3 92.0992 69.3 88.7992 68.2C86.9992 70 84.7992 70.7 82.7992 70.7ZM91.2992 40.9C89.6992 40.9 88.1992 41.2 86.6992 41.9C83.6992 43.2 81.4992 45.8 80.4992 49.1C79.4992 52.4 79.6992 56.1 81.1992 59.5L81.4992 60.1L80.8992 60.5C80.2992 60.8 79.6992 61.2 79.2992 61.5C77.8992 62.7 77.1992 64.2 77.4992 65.7C77.6992 67 78.4992 68 79.6992 68.5C82.0992 69.6 85.6992 69.5 87.9992 66.8L88.2992 66.4L88.7992 66.6C91.7992 67.8 95.0992 67.9 98.0992 66.8C101.499 65.6 103.799 63.7 104.899 61.2C106.199 58.1 105.799 54.1 103.599 49.2C102.099 45.8 99.4992 43.2 96.2992 41.8C94.5992 41.2 92.8992 40.9 91.2992 40.9Z" fill="#030047"/>
<path d="M94.8381 54.3222C95.3901 54.3058 95.8244 53.845 95.8081 53.293C95.7917 52.7409 95.331 52.3066 94.7789 52.323C94.2268 52.3393 93.7925 52.8001 93.8089 53.3521C93.8252 53.9042 94.286 54.3385 94.8381 54.3222Z" fill="#030047"/>
<path d="M103.199 54.2C101.999 52.3 100.599 50.6 98.8994 49.1C98.3994 48.7 97.6994 49.4 98.1994 49.8C99.7994 51.2 101.199 52.9 102.399 54.7C102.699 55.2 103.499 54.7 103.199 54.2Z" fill="#030047"/>
<path d="M94.5995 43.1C92.3995 45.5 81.4995 50.9 85.5995 56.3C86.5995 57.7 87.7995 58.2 86.6995 59.6C85.3995 60.8 84.1995 59.3 84.1995 59.3C82.1995 59.8 79.9995 60.5 78.8995 61.5C73.5995 56.9 73.5995 51.1 75.9995 49.2C75.9995 49.2 89.9995 29.1 96.4995 34.4C102.199 39.2 94.5995 43.1 94.5995 43.1Z" fill="#030047"/>
<path d="M85.7999 63C83.6999 62 81.0999 62.6 79.5999 64.4C79.1999 64.9 79.8999 65.6 80.2999 65.1C81.4999 63.6 83.4999 63 85.2999 63.9C85.8999 64.2 86.2999 63.3 85.7999 63Z" fill="#030047"/>
<path d="M117.7 117.5C117.7 117.5 120.2 111.6 117.2 111.2C108.6 110.2 98.9998 119.6 90.2998 123.3C90.2998 128.4 90.6998 133.5 90.8998 138.6C90.9998 141.7 91.0998 144.7 91.0998 147.8C98.3998 145.6 104.4 141.8 106.5 138.4C108.3 135.3 111.6 135.1 113.1 133.3C116.1 134.6 120.4 126.8 117 124C117.1 124 121 121 117.7 117.5Z" fill="white"/>
<path d="M90.4996 148.8V146.7C90.4996 144.1 90.3996 141.3 90.2996 138.6C90.1996 136.9 90.0996 135.2 89.9996 133.6C89.7996 130.2 89.5996 126.8 89.5996 123.3V122.8L90.0996 122.6C92.9996 121.3 95.9996 119.5 99.0996 117.5C105.2 113.7 111.4 109.7 117.4 110.4C118.2 110.5 118.8 110.9 119.1 111.5C120 113.1 119.1 116.1 118.6 117.3C119.5 118.4 119.9 119.5 119.8 120.7C119.7 122.2 118.8 123.3 118.2 124C119.8 125.9 119.2 129 117.8 131.2C116.6 133.3 114.9 134.3 113.4 134.1C112.7 134.7 111.9 135.2 111 135.6C109.6 136.3 108.2 137.1 107.2 138.7C105 142.4 98.7996 146.2 91.3996 148.5L90.4996 148.8ZM91.0996 123.8C91.0996 127 91.2996 130.3 91.4996 133.5C91.5996 135.2 91.6996 136.9 91.7996 138.6C91.8996 141.3 91.9996 144 91.9996 146.7V146.8C98.4996 144.7 104.1 141.2 106 138C107.2 136 108.9 135.1 110.4 134.3C111.3 133.8 112.2 133.4 112.7 132.8L113.1 132.4L113.6 132.6C114.4 132.9 115.7 132.1 116.6 130.5C117.8 128.5 118.2 125.8 116.7 124.6L116 124L116.7 123.4C116.7 123.4 118.2 122.2 118.3 120.6C118.4 119.7 118 118.8 117.2 118L116.9 117.6L117.1 117.2C117.7 115.7 118.4 113.3 117.8 112.3C117.7 112.1 117.6 112 117.2 111.9C111.8 111.3 105.8 115.1 99.8996 118.7C96.9996 120.6 93.9996 122.5 91.0996 123.8Z" fill="#030047"/>
<path d="M95.7998 131.1C94.8998 128 94.1998 124.9 93.4998 121.8C89.1998 124.2 84.9998 125.7 81.1998 124.4C70.6998 120.8 66.7998 101.6 78.8998 92.1C90.9998 82.6 92.0998 69.7 92.0998 69.7C72.9998 70.5 54.5998 82 46.0998 105.2C36.4998 131.6 48.9998 145 58.8998 149.7C70.2998 155 91.1998 149 99.8998 144C98.4998 139.8 97.0998 135.5 95.7998 131.1Z" fill="#030047"/>
<path d="M117.2 116.6C113.5 114.6 109.899 116.8 106.899 119C106.399 119.4 106.899 120.2 107.399 119.9C110.099 117.9 113.4 115.7 116.7 117.5C117.3 117.7 117.8 116.9 117.2 116.6Z" fill="#030047"/>
<path d="M116.2 122.9C113.3 122.1 110.5 123 108.6 125.4C108.2 125.9 108.9 126.6 109.3 126.1C110.9 124 113.3 123.2 115.9 123.9C116.6 124 116.8 123.1 116.2 122.9Z" fill="#030047"/>
<path d="M113.7 130.1C113.3 130.7 112.9 131.3 112.5 131.8C112.1 132.3 113 132.8 113.4 132.3C113.8 131.7 114.2 131.1 114.6 130.6C114.9 130 114 129.5 113.7 130.1Z" fill="#030047"/>
<path d="M84.4 125.3C82.1 125.3 79.2 124.8 76.1 123.3C72.8 121.7 70.5 119.2 69.5 116C67.9 111 69.2 104.4 73.4 96.5C73.6 96.1 74 96 74.4 96.2C74.8 96.4 74.9 96.8 74.7 97.2C70.8 104.6 69.5 111 70.9 115.5C71.8 118.3 73.8 120.5 76.7 121.9C84.2 125.5 89.9 122.6 90 122.6C90.4 122.4 90.8 122.6 91 122.9C91.2 123.3 91.1 123.7 90.7 123.9C90.6 124.1 88.2 125.3 84.4 125.3Z" fill="white"/>
<path d="M73.3995 152.2C67.9995 152.2 62.8995 151.7 58.8995 150.4C58.4995 150.3 58.2995 149.8 58.3995 149.5C58.4995 149.2 58.9995 148.9 59.2995 149C70.8995 152.8 93.6995 149.4 99.7995 147.1C100.2 146.9 100.6 147.1 100.8 147.5C100.9 147.9 100.8 148.3 100.4 148.5C95.9995 150.2 84.2995 152.2 73.3995 152.2Z" fill="white"/>
<path d="M154.4 31.5C154.2 31.5 154 31.4 153.9 31.3C153.6 31 153.6 30.5 153.9 30.2L160.5 23.6C160.8 23.3 161.3 23.3 161.6 23.6C161.9 23.9 161.9 24.4 161.6 24.7L155 31.3C154.8 31.4 154.6 31.5 154.4 31.5Z" fill="#FF3E6C"/>
<path d="M161.099 31.5C160.899 31.5 160.699 31.4 160.599 31.3L153.999 24.7C153.699 24.4 153.699 23.9 153.999 23.6C154.299 23.3 154.799 23.3 155.099 23.6L161.699 30.2C161.999 30.5 161.999 31 161.699 31.3C161.399 31.4 161.199 31.5 161.099 31.5Z" fill="#FF3E6C"/>
</svg>
